# xmcd CD database file
#
# Track frame offsets:
#	150
#	23751
#	54348
#	72471
#	103956
#	135029
#	144776
#	168547
#	187832
#	207048
#	221239
#	244877
#	263721
#	283353
#
# Disc length: 4159 seconds
#
# Revision: 0
# Processed by: cddbd v1.4PL0 Copyright (c) Steve Scherf et al.
# Submitted via: Feurio! 1.65 - http://www.feurio.com
#
DISCID=cf103d0e
DTITLE=Hot Tuna - Splashdown Two
DYEAR=1900
DGENRE=
TTITLE0=Oh Lord Search My Heart
TTITLE1=Death Dont Have No Mercy
TTITLE2=I Am the Light of This World
TTITLE3=Manns Fate
TTITLE4=Whining Boy Blues
TTITLE5=Embryonic Journey
TTITLE6=99 Year Blues
TTITLE7=Police Dog (Splashdown) Blues
TTITLE8=Sally Whered You Get Your Liqu
TTITLE9=Keep Your Lamps Trimmed and Bu
TTITLE10=I Know You Rider
TTITLE11=Babe I Want You To Know
TTITLE12=Keep On Truckin
TTITLE13=Candyman
EXTD=
EXTT0=01
EXTT1=02
EXTT2=03
EXTT3=04
EXTT4=05
EXTT5=06
EXTT6=07
EXTT7=08
EXTT8=09
EXTT9=10
EXTT10=11
EXTT11=12
EXTT12=13
EXTT13=14
PLAYORDER=
